Simulation
nRows=38
nColumns=15
endheader
time  TH_x TH_y TH_z SC_y  SC_z  SC_x  AC_y  AC_z  AC_x  GH_y  GH_z  GH_yy  EL_x  PS_y
0.0  0.000000  0.000000  0.000000  -29.2314633897116  2.0169230452930873  1.0529184438365837  52.83574569813674  4.500091564752226  -2.8675511189166447  146.3287150331518  5.118853004558213  -97.70652751372589  20.19924504168174  120.000000
0.04016479400749064  0.000000  0.000000  0.000000  -29.235881827198266  2.029060970500936  1.045450004341816  52.82634954730013  4.561006607819042  -2.8513509436653433  144.92885232621234  4.994865839192642  -96.44837411745372  20.113755965290757  120.000000
0.08032958801498127  0.000000  0.000000  0.000000  -29.24946112058587  2.0698102456810967  1.0240952038190578  52.792740470759135  4.733360337224878  -2.8162004697921263  140.50774362051575  4.6342108211383035  -92.45195741665648  19.8659605216514  120.000000
0.12049438202247191  0.000000  0.000000  0.000000  -29.280003360522397  2.1450567116774852  0.9877588813438833  52.71533590148583  4.992543997397323  -2.7774773207288934  132.16671336284443  4.0879110780393475  -84.81658345827006  19.480326421185175  120.000000
0.16065917602996255  0.000000  0.000000  0.000000  -29.339116983398068  2.253430085039244  0.9290296646811831  52.580000635958726  5.313077479097922  -2.740432648689062  117.69280634916433  3.4863478472713503  -71.32436107483929  18.98631598028421  120.000000
0.20082397003745317  0.000000  0.000000  0.000000  -29.438025024368606  2.392237326200318  0.8401603115387531  52.3849915888425  5.675208616802943  -2.705262141259935  94.28557441633882  3.1080100970728437  -49.16432057327812  18.41328801550347  120.000000
0.24098876404494382  0.000000  0.000000  0.000000  -29.59216440677423  2.5603371828824733  0.7181992592145494  52.13244193666819  6.064480588500515  -2.6653669743655506  65.46580367199972  3.3577896600489696  -21.840248068595734  17.78802396057465  120.000000
0.28115355805243447  0.000000  0.000000  0.000000  -29.816672347796764  2.755853184312896  0.5657258813197363  51.831929148416414  6.4697788485901055  -2.6136576395250946  42.32348749077229  4.3783758394667025  -0.4194141200840172  17.132570668269857  120.000000
0.3213183520599251  0.000000  0.000000  0.000000  -30.12345833503856  2.9773379254340893  0.39144136716815986  51.49675126591438  6.881717188030747  -2.544010362144842  27.76351507416427  5.961407560039369  12.220617915160807  16.465798289661407  120.000000
0.3614831460674157  0.000000  0.000000  0.000000  -30.518685032423846  3.2244565365367106  0.20793540646537048  51.14439667723545  7.293245028889874  -2.4537586504753346  18.73812521074792  7.9071014747788855  19.158269476688638  15.802482284535179  120.000000
0.40164794007490634  0.000000  0.000000  0.000000  -31.001520168094107  3.4977069652741  0.03275559148421411  50.79179344461833  7.698422942822  -2.3421411130286787  12.773345530978636  10.106418815560096  22.9009194345373  15.154585257292965  120.000000
0.441812734082397  0.000000  0.000000  0.000000  -31.566152836136844  3.7964638838337987  -0.1131254725796768  50.45463747403811  8.091545887753865  -2.211105453450883  8.541291574424573  12.49904723224524  24.810965921665208  14.530651421295858  120.000000
0.48197752808988764  0.000000  0.000000  0.000000  -32.20337930027464  4.120300314967054  -0.20993080185645405  50.14667521844372  8.466893765980611  -2.0641132606807497  5.347302694015058  15.044817648996792  25.618199737923565  13.936941342720127  120.000000
0.5221423220973783  0.000000  0.000000  0.000000  -32.90281460905443  4.468381298761745  -0.24084750247297418  49.87766125904965  8.818177353602028  -1.9049646000057379  2.810077628261977  17.71140606215071  25.73791167313956  13.376871379919923  120.000000
0.5623071161048689  0.000000  0.000000  0.000000  -33.653777394328245  4.83898630987031  -0.19286580337774326  49.65486511963037  9.13863064697429  -1.737729259023258  0.7153821609980943  20.469864413334747  25.416584204436838  12.85168218016479  120.000000
0.6024719101123596  0.000000  0.000000  0.000000  -34.44435616067027  5.229572309135489  -0.06081019441930726  49.48370683090322  9.4241838594228  -1.5623090350144  -1.0554157188469462  23.292254167733194  24.802299030219306  12.36137679000312  120.000000
0.6426367041198502  0.000000  0.000000  0.000000  -35.261163364144295  5.636667586308288  0.15319247087497367  49.36898133970792  9.674196975866609  -1.3752486658307845  -2.564520560231163  26.15159450148259  23.98310869895298  11.904632365891883  120.000000
0.6828014981273408  0.000000  0.000000  0.000000  -36.09044400268732  6.056755578060749  0.4446743680730238  49.313976715926216  9.888852472093033  -1.1733804776324872  -3.8453374982908506  29.022167219252633  23.0132609699681  11.478789000037908  120.000000
0.7229662921348314  0.000000  0.000000  0.000000  -36.919820171182536  6.486582200499074  0.8077072808257272  49.319359268463955  10.06973781217009  -0.9542072702873772  -4.917237022175972  31.88011438549685  21.92720607136335  11.078806905657741  120.000000
0.7631310861423221  0.000000  0.000000  0.000000  -37.738722979993824  6.923398233875368  1.2359945916502122  49.38273564115789  10.21991057411792  -0.7165384907562335  -5.793990817767371  34.70378122943808  20.747732128162628  10.69777081660123  120.000000
0.8032958801498127  0.000000  0.000000  0.000000  -38.53859309141547  7.36485085952297  1.7234513555481479  49.49872329879458  10.343917780999474  -0.46044935781321206  -6.4881197079695445  37.47402272683015  19.49113970895564  10.327536726118296  120.000000
0.8434606741573034  0.000000  0.000000  0.000000  -39.31252312337749  7.8089394904921585  2.263848384358644  49.659267574517344  10.447602902827489  -0.1870289693491634  -7.0135031382828  40.17409641013123  18.17090592704269  9.96013939967721  120.000000
0.883625468164794  0.000000  0.000000  0.000000  -40.05481421446076  8.253641521224457  2.850690766007607  49.85405173554643  10.537231182339703  0.10149149928675166  -7.38673648429248  42.78944514119046  16.800720147914692  9.589473561736252  120.000000
0.9237902621722847  0.000000  0.000000  0.000000  -40.760704505570594  8.696755390780627  3.4764584891809363  50.07116166843239  10.61855860689316  0.4016285287069795  -7.627622172391074  45.30708891211288  15.396452550441941  9.21275299019897  120.000000
0.9639550561797753  0.000000  0.000000  0.000000  -41.42625482433865  9.135542684110066  4.132207914694281  50.29763134666412  10.695803504095055  0.7084965873499403  -7.7587949765406625  47.715133040473034  13.977324063089698  8.831672257628826  120.000000
1.004119850187266  0.000000  0.000000  0.000000  -42.04843034474576  9.566648066745246  4.807153560898306  50.520457977058456  10.770856655708563  1.0158288258987425  -7.804511690671421  50.00228749038131  12.565692428070923  8.452295044510626  120.000000
1.0442846441947566  0.000000  0.000000  0.000000  -42.62528231850207  9.985894740577635  5.489081614346321  50.72764483489292  10.843010937754945  1.3165599466609383  -7.788606214273585  52.15789744985276  11.18585571286512  8.084480121931852  120.000000
1.0844494382022472  0.000000  0.000000  0.000000  -43.15598649995081  10.388727351301027  6.164950747530612  50.90960268337099  10.909241055106039  1.6031075661309695  -7.733354212826603  54.172288994813776  9.862932783025375  7.740316103350882  120.000000
1.1246142322097379  0.000000  0.000000  0.000000  -43.64106911640653  10.770877077099849  6.821423360007063  51.060023411857365  10.964574525094019  1.8675249767709232  -7.65814845457198  56.03691462151614  8.621178315230868  7.432319059533942  120.000000
1.1647790262172284  0.000000  0.000000  0.000000  -44.082401350122275  11.128209857940979  7.445457771520392  51.17590252183012  11.002630648266614  2.102175633859492  -7.578617763584359  57.7445152599362  7.482518858519687  7.171993337745955  120.000000
1.2049438202247191  0.000000  0.000000  0.000000  -44.48241117806761  11.456996556553252  8.024947448917546  51.257304294932354  11.016457790952344  2.3002280566400626  -7.506146833172039  59.28918779317827  6.465111112417741  6.968399215084657  120.000000
1.2451086142322096  0.000000  0.000000  0.000000  -44.84353108832131  11.754207051633362  8.54977905411985  51.30681942601407  10.999815320290095  2.45622762833488  -7.447982664166425  60.66692505501971  5.582502155036288  6.8272221561602064  120.000000
1.2852734082397004  0.000000  0.000000  0.000000  -45.16771917137804  12.017814207136635  9.012825794034793  51.328774824031534  10.948473881689564  2.566668900166868  -7.407608762641124  61.876213537353955  4.842754130629915  6.75002231738921  120.000000
1.325438202247191  0.000000  0.000000  0.000000  -45.45630600650682  12.24685946961333  9.410834467985435  51.32813657512909  10.861321785255376  2.6305374010699643  -7.385598320097357  62.91839588574465  4.248245661018728  6.733646367675877  120.000000
1.3656029962546816  0.000000  0.000000  0.000000  -45.71016563502652  12.441400090417156  9.74482461085966  51.30974981479704  10.741067255684657  2.6492967442207855  -7.380453536350131  63.797807624665104  3.7953408454872806  6.76976571867097  120.000000
1.4057677902621724  0.000000  0.000000  0.000000  -45.930060166732964  12.602320835892726  10.020191407756736  51.27763876159209  10.594415087212395  2.6268483616294542  -7.389427477794774  64.52143665746581  3.4748442529603407  6.844967345478269  120.000000
1.4459325842696629  0.000000  0.000000  0.000000  -46.116942284401155  12.731188507295546  10.245984658709888  51.23484545788647  10.431569496953315  2.5687894318805733  -7.409051730349042  65.09817279493733  3.272579772401342  6.941774230267971  120.000000
1.4860973782771536  0.000000  0.000000  0.000000  -46.27209154786923  12.830017529458546  10.433714289871837  51.18338745140721  10.265006228597738  2.481829176065208  -7.4353156251866634  65.53758006640916  3.170899640091634  7.04074995478047  120.000000
